# xmcd
#
# Track frame offsets:
#	150
#	8352
#	11782
#	13307
#	15847
#	17337
#	18527
#	20055
#	21300
#	23532
#	25482
#	26862
#	28382
#	30557
#	33362
#	35445
#	37500
#	39390
#	41727
#	43647
#	45392
#	47195
#	49507
#	52612
#	55542
#	58392
#	59950
#	61842
#	66000
#	69540
#	73785
#	75590
#	77450
#	79515
#	80282
#	82280
#	83930
#	86507
#
# Disc length: 1187 seconds
#
# Revision: 1
# Processed by: cddbd v1.5PL3 Copyright (c) Steve Scherf et al.
# Submitted via: CDex 1.50Beta5
#
DISCID=d304a126
DTITLE=Little Seraph - Angel Poetry/ANGELIC ALICE
DYEAR=1900
DGENRE=
TTITLE0=HOME
TTITLE1=とりとめのないこと
TTITLE2=あなたとの可能性
TTITLE3=複雑のような、単純な・・・
TTITLE4=うれしいかお
TTITLE5=ほしいもの
TTITLE6=”いいよ”
TTITLE7=どっち
TTITLE8=うた
TTITLE9=想いは・・・
TTITLE10=twice
TTITLE11=ねぇ
TTITLE12=告白
TTITLE13=声が聴きたい時
TTITLE14=いつも、隣りに・・・
TTITLE15=ちいさな暖気団
TTITLE16=「逢いたいよう」
TTITLE17=なんとなく
TTITLE18=ぜんぶ
TTITLE19=あなたに
TTITLE20=おそろい
TTITLE21=X'masカレンダー
TTITLE22=ホログラム
TTITLE23=NEAR LOVE
TTITLE24=おひさまのにおい
TTITLE25=”おやすみなさい”をいう前に
TTITLE26=YOU
TTITLE27=Boy meets Girl.
TTITLE28=本当はこっちなの
TTITLE29=ひなたを持っているひと
TTITLE30=はね
TTITLE31=それから
TTITLE32=思い返せば
TTITLE33=それとも
TTITLE34=あなたは
TTITLE35=今も そして、どんな時も
TTITLE36=思い切って
TTITLE37=エンジェル
EXTD=
EXTT0=
EXTT1=
EXTT2=
EXTT3=
EXTT4=
EXTT5=
EXTT6=
EXTT7=
EXTT8=
EXTT9=
EXTT10=
EXTT11=
EXTT12=
EXTT13=
EXTT14=
EXTT15=
EXTT16=
EXTT17=
EXTT18=
EXTT19=
EXTT20=
EXTT21=
EXTT22=
EXTT23=
EXTT24=
EXTT25=
EXTT26=
EXTT27=
EXTT28=
EXTT29=
EXTT30=
EXTT31=
EXTT32=
EXTT33=
EXTT34=
EXTT35=
EXTT36=
EXTT37=
PLAYORDER=
